# xmcd
#
# Track frame offsets:
#	150
#	23205
#	48605
#	68135
#	94905
#	120722
#	150527
#	175540
#	202302
#	228545
#	252590
#	286802
#
# Disc length: 4007 seconds
#
# Revision: 1
# Processed by: cddbd v1.5.1PL0 Copyright (c) Steve Scherf et al.
# Submitted via: CDex 1.50Beta5
#
DISCID=ab0fa50c
DTITLE=野上ゆかな - プリンセスメーカー〜ゆめみる妖精
DYEAR=1997
DGENRE=Game
TTITLE0=人間になりたい
TTITLE1=10歳のお手伝い
TTITLE2=10歳の学校
TTITLE3=11歳の習い事
TTITLE4=12歳の働き者
TTITLE5=13歳の訪問販売
TTITLE6=14歳の恋文
TTITLE7=16歳の出会い
TTITLE8=17歳のメイド探偵
TTITLE9=18歳の親友
TTITLE10=18歳のそして…
TTITLE11=少女はみんなプリンセス?
EXTD=
EXTT0=
EXTT1=
EXTT2=
EXTT3=
EXTT4=
EXTT5=
EXTT6=
EXTT7=
EXTT8=
EXTT9=
EXTT10=
EXTT11=
PLAYORDER=
